<mxfile host="app.diagrams.net" agent="Mozilla/5.0 (Windows NT 10.0; Win64; x64) AppleWebKit/537.36 (KHTML, like Gecko) Chrome/131.0.0.0 Safari/537.36" version="24.8.4">
  <diagram id="C5RBs43oDa-KdzZeNtuy" name="Page-1">
    <mxGraphModel dx="1336" dy="398" grid="1" gridSize="10" guides="1" tooltips="1" connect="1" arrows="1" fold="1" page="1" pageScale="1" pageWidth="827" pageHeight="1169" math="0" shadow="0">
      <root>
        <mxCell id="WIyWlLk6GJQsqaUBKTNV-0" />
        <mxCell id="WIyWlLk6GJQsqaUBKTNV-1" parent="WIyWlLk6GJQsqaUBKTNV-0" />
        <mxCell id="yqjopBWIbKLMoS0UAzcV-0" value="WORK_FOR" style="rhombus;whiteSpace=wrap;html=1;fontSize=23;" vertex="1" parent="WIyWlLk6GJQsqaUBKTNV-1">
          <mxGeometry x="330" y="160" width="210" height="80" as="geometry" />
        </mxCell>
        <mxCell id="yqjopBWIbKLMoS0UAzcV-1" value="MANAGES" style="rhombus;whiteSpace=wrap;html=1;fontSize=23;" vertex="1" parent="WIyWlLk6GJQsqaUBKTNV-1">
          <mxGeometry x="340" y="360" width="210" height="80" as="geometry" />
        </mxCell>
        <mxCell id="yqjopBWIbKLMoS0UAzcV-2" value="EMPLOYEE" style="rounded=0;whiteSpace=wrap;html=1;fontSize=23;" vertex="1" parent="WIyWlLk6GJQsqaUBKTNV-1">
          <mxGeometry x="30" y="280" width="170" height="40" as="geometry" />
        </mxCell>
        <mxCell id="yqjopBWIbKLMoS0UAzcV-3" value="DEPARTMENT" style="rounded=0;whiteSpace=wrap;html=1;fontSize=23;" vertex="1" parent="WIyWlLk6GJQsqaUBKTNV-1">
          <mxGeometry x="680" y="280" width="170" height="40" as="geometry" />
        </mxCell>
        <mxCell id="yqjopBWIbKLMoS0UAzcV-4" value="" style="endArrow=none;html=1;rounded=0;exitX=0.75;exitY=0;exitDx=0;exitDy=0;" edge="1" parent="WIyWlLk6GJQsqaUBKTNV-1" source="yqjopBWIbKLMoS0UAzcV-2">
          <mxGeometry width="50" height="50" relative="1" as="geometry">
            <mxPoint x="280" y="250" as="sourcePoint" />
            <mxPoint x="330" y="200" as="targetPoint" />
          </mxGeometry>
        </mxCell>
        <mxCell id="yqjopBWIbKLMoS0UAzcV-5" value="" style="endArrow=none;html=1;rounded=0;exitX=0.75;exitY=0;exitDx=0;exitDy=0;entryX=0.039;entryY=0.54;entryDx=0;entryDy=0;entryPerimeter=0;" edge="1" parent="WIyWlLk6GJQsqaUBKTNV-1" target="yqjopBWIbKLMoS0UAzcV-0">
          <mxGeometry width="50" height="50" relative="1" as="geometry">
            <mxPoint x="168" y="280" as="sourcePoint" />
            <mxPoint x="340" y="200" as="targetPoint" />
          </mxGeometry>
        </mxCell>
        <mxCell id="yqjopBWIbKLMoS0UAzcV-10" value="" style="endArrow=none;html=1;rounded=0;entryX=0.235;entryY=0;entryDx=0;entryDy=0;entryPerimeter=0;" edge="1" parent="WIyWlLk6GJQsqaUBKTNV-1" target="yqjopBWIbKLMoS0UAzcV-3">
          <mxGeometry width="50" height="50" relative="1" as="geometry">
            <mxPoint x="540" y="200" as="sourcePoint" />
            <mxPoint x="710" y="270" as="targetPoint" />
          </mxGeometry>
        </mxCell>
        <mxCell id="yqjopBWIbKLMoS0UAzcV-11" value="" style="endArrow=none;html=1;rounded=0;entryX=0.235;entryY=0;entryDx=0;entryDy=0;entryPerimeter=0;exitX=0.967;exitY=0.532;exitDx=0;exitDy=0;exitPerimeter=0;" edge="1" parent="WIyWlLk6GJQsqaUBKTNV-1" source="yqjopBWIbKLMoS0UAzcV-0">
          <mxGeometry width="50" height="50" relative="1" as="geometry">
            <mxPoint x="530" y="200" as="sourcePoint" />
            <mxPoint x="710" y="280" as="targetPoint" />
          </mxGeometry>
        </mxCell>
        <mxCell id="yqjopBWIbKLMoS0UAzcV-13" value="" style="endArrow=none;html=1;rounded=0;exitX=1;exitY=0.5;exitDx=0;exitDy=0;" edge="1" parent="WIyWlLk6GJQsqaUBKTNV-1" source="yqjopBWIbKLMoS0UAzcV-2">
          <mxGeometry width="50" height="50" relative="1" as="geometry">
            <mxPoint x="290" y="450" as="sourcePoint" />
            <mxPoint x="340" y="400" as="targetPoint" />
          </mxGeometry>
        </mxCell>
        <mxCell id="yqjopBWIbKLMoS0UAzcV-14" value="" style="endArrow=none;html=1;rounded=0;entryX=0.25;entryY=1;entryDx=0;entryDy=0;" edge="1" parent="WIyWlLk6GJQsqaUBKTNV-1" target="yqjopBWIbKLMoS0UAzcV-3">
          <mxGeometry width="50" height="50" relative="1" as="geometry">
            <mxPoint x="550" y="400" as="sourcePoint" />
            <mxPoint x="600" y="350" as="targetPoint" />
          </mxGeometry>
        </mxCell>
        <mxCell id="yqjopBWIbKLMoS0UAzcV-15" value="Start_date" style="ellipse;whiteSpace=wrap;html=1;" vertex="1" parent="WIyWlLk6GJQsqaUBKTNV-1">
          <mxGeometry x="270" y="280" width="120" height="40" as="geometry" />
        </mxCell>
        <mxCell id="yqjopBWIbKLMoS0UAzcV-16" value="" style="endArrow=none;html=1;rounded=0;entryX=0.5;entryY=1;entryDx=0;entryDy=0;exitX=0;exitY=0;exitDx=0;exitDy=0;" edge="1" parent="WIyWlLk6GJQsqaUBKTNV-1" source="yqjopBWIbKLMoS0UAzcV-1" target="yqjopBWIbKLMoS0UAzcV-15">
          <mxGeometry width="50" height="50" relative="1" as="geometry">
            <mxPoint x="400" y="380" as="sourcePoint" />
            <mxPoint x="450" y="330" as="targetPoint" />
          </mxGeometry>
        </mxCell>
        <mxCell id="yqjopBWIbKLMoS0UAzcV-19" value="1" style="text;html=1;align=center;verticalAlign=middle;resizable=0;points=[];autosize=1;strokeColor=none;fillColor=none;fontSize=23;" vertex="1" parent="WIyWlLk6GJQsqaUBKTNV-1">
          <mxGeometry x="315" y="363" width="40" height="40" as="geometry" />
        </mxCell>
        <mxCell id="yqjopBWIbKLMoS0UAzcV-23" value="Number_of_employees" style="ellipse;whiteSpace=wrap;html=1;align=center;dashed=1;" vertex="1" parent="WIyWlLk6GJQsqaUBKTNV-1">
          <mxGeometry x="450" y="280" width="160" height="40" as="geometry" />
        </mxCell>
        <mxCell id="yqjopBWIbKLMoS0UAzcV-24" value="" style="endArrow=none;html=1;rounded=0;entryX=0;entryY=0.5;entryDx=0;entryDy=0;" edge="1" parent="WIyWlLk6GJQsqaUBKTNV-1" target="yqjopBWIbKLMoS0UAzcV-3">
          <mxGeometry width="50" height="50" relative="1" as="geometry">
            <mxPoint x="610" y="300" as="sourcePoint" />
            <mxPoint x="650" y="250" as="targetPoint" />
          </mxGeometry>
        </mxCell>
        <mxCell id="yqjopBWIbKLMoS0UAzcV-25" value="1" style="text;html=1;align=center;verticalAlign=middle;resizable=0;points=[];autosize=1;strokeColor=none;fillColor=none;fontSize=23;" vertex="1" parent="WIyWlLk6GJQsqaUBKTNV-1">
          <mxGeometry x="525" y="363" width="40" height="40" as="geometry" />
        </mxCell>
        <mxCell id="yqjopBWIbKLMoS0UAzcV-26" value="1" style="text;html=1;align=center;verticalAlign=middle;resizable=0;points=[];autosize=1;strokeColor=none;fillColor=none;fontSize=23;" vertex="1" parent="WIyWlLk6GJQsqaUBKTNV-1">
          <mxGeometry x="525" y="165" width="40" height="40" as="geometry" />
        </mxCell>
        <mxCell id="yqjopBWIbKLMoS0UAzcV-27" value="N" style="text;html=1;align=center;verticalAlign=middle;resizable=0;points=[];autosize=1;strokeColor=none;fillColor=none;fontSize=23;" vertex="1" parent="WIyWlLk6GJQsqaUBKTNV-1">
          <mxGeometry x="315" y="155" width="40" height="40" as="geometry" />
        </mxCell>
        <mxCell id="yqjopBWIbKLMoS0UAzcV-28" value="&lt;u&gt;Ssn&lt;/u&gt;" style="ellipse;whiteSpace=wrap;html=1;" vertex="1" parent="WIyWlLk6GJQsqaUBKTNV-1">
          <mxGeometry x="-130" y="160" width="110" height="40" as="geometry" />
        </mxCell>
        <mxCell id="yqjopBWIbKLMoS0UAzcV-29" value="Sex" style="ellipse;whiteSpace=wrap;html=1;" vertex="1" parent="WIyWlLk6GJQsqaUBKTNV-1">
          <mxGeometry x="210" y="165" width="110" height="40" as="geometry" />
        </mxCell>
        <mxCell id="yqjopBWIbKLMoS0UAzcV-32" value="" style="endArrow=none;html=1;rounded=0;exitX=0.5;exitY=0;exitDx=0;exitDy=0;entryX=0.5;entryY=1;entryDx=0;entryDy=0;" edge="1" parent="WIyWlLk6GJQsqaUBKTNV-1" source="yqjopBWIbKLMoS0UAzcV-2" target="yqjopBWIbKLMoS0UAzcV-29">
          <mxGeometry width="50" height="50" relative="1" as="geometry">
            <mxPoint x="170" y="160" as="sourcePoint" />
            <mxPoint x="220" y="110" as="targetPoint" />
          </mxGeometry>
        </mxCell>
        <mxCell id="yqjopBWIbKLMoS0UAzcV-33" value="" style="endArrow=none;html=1;rounded=0;entryX=0.5;entryY=1;entryDx=0;entryDy=0;" edge="1" parent="WIyWlLk6GJQsqaUBKTNV-1" target="yqjopBWIbKLMoS0UAzcV-28">
          <mxGeometry width="50" height="50" relative="1" as="geometry">
            <mxPoint x="60" y="280" as="sourcePoint" />
            <mxPoint x="110" y="230" as="targetPoint" />
          </mxGeometry>
        </mxCell>
        <mxCell id="yqjopBWIbKLMoS0UAzcV-34" value="Salary" style="ellipse;whiteSpace=wrap;html=1;" vertex="1" parent="WIyWlLk6GJQsqaUBKTNV-1">
          <mxGeometry x="230" y="50" width="110" height="40" as="geometry" />
        </mxCell>
        <mxCell id="yqjopBWIbKLMoS0UAzcV-35" value="" style="endArrow=none;html=1;rounded=0;entryX=0.5;entryY=1;entryDx=0;entryDy=0;" edge="1" parent="WIyWlLk6GJQsqaUBKTNV-1" target="yqjopBWIbKLMoS0UAzcV-34">
          <mxGeometry width="50" height="50" relative="1" as="geometry">
            <mxPoint x="106" y="280" as="sourcePoint" />
            <mxPoint x="240" y="120" as="targetPoint" />
          </mxGeometry>
        </mxCell>
        <mxCell id="yqjopBWIbKLMoS0UAzcV-38" value="Address" style="ellipse;whiteSpace=wrap;html=1;" vertex="1" parent="WIyWlLk6GJQsqaUBKTNV-1">
          <mxGeometry x="130" y="90" width="110" height="40" as="geometry" />
        </mxCell>
        <mxCell id="yqjopBWIbKLMoS0UAzcV-39" value="" style="endArrow=none;html=1;rounded=0;exitX=0.412;exitY=0;exitDx=0;exitDy=0;exitPerimeter=0;entryX=0.5;entryY=1;entryDx=0;entryDy=0;" edge="1" parent="WIyWlLk6GJQsqaUBKTNV-1" source="yqjopBWIbKLMoS0UAzcV-2" target="yqjopBWIbKLMoS0UAzcV-38">
          <mxGeometry width="50" height="50" relative="1" as="geometry">
            <mxPoint x="30" y="210" as="sourcePoint" />
            <mxPoint x="80" y="160" as="targetPoint" />
          </mxGeometry>
        </mxCell>
        <mxCell id="yqjopBWIbKLMoS0UAzcV-40" value="Bdate" style="ellipse;whiteSpace=wrap;html=1;" vertex="1" parent="WIyWlLk6GJQsqaUBKTNV-1">
          <mxGeometry x="-90" y="110" width="110" height="40" as="geometry" />
        </mxCell>
        <mxCell id="yqjopBWIbKLMoS0UAzcV-41" value="" style="endArrow=none;html=1;rounded=0;entryX=0.5;entryY=1;entryDx=0;entryDy=0;exitX=0.213;exitY=-0.005;exitDx=0;exitDy=0;exitPerimeter=0;" edge="1" parent="WIyWlLk6GJQsqaUBKTNV-1" source="yqjopBWIbKLMoS0UAzcV-2" target="yqjopBWIbKLMoS0UAzcV-40">
          <mxGeometry width="50" height="50" relative="1" as="geometry">
            <mxPoint y="205" as="sourcePoint" />
            <mxPoint x="50" y="155" as="targetPoint" />
          </mxGeometry>
        </mxCell>
        <mxCell id="yqjopBWIbKLMoS0UAzcV-42" value="Name" style="ellipse;whiteSpace=wrap;html=1;" vertex="1" parent="WIyWlLk6GJQsqaUBKTNV-1">
          <mxGeometry x="20" y="120" width="110" height="40" as="geometry" />
        </mxCell>
        <mxCell id="yqjopBWIbKLMoS0UAzcV-43" value="" style="endArrow=none;html=1;rounded=0;entryX=0.5;entryY=1;entryDx=0;entryDy=0;exitX=0.307;exitY=-0.007;exitDx=0;exitDy=0;exitPerimeter=0;" edge="1" parent="WIyWlLk6GJQsqaUBKTNV-1" source="yqjopBWIbKLMoS0UAzcV-2" target="yqjopBWIbKLMoS0UAzcV-42">
          <mxGeometry width="50" height="50" relative="1" as="geometry">
            <mxPoint x="30" y="210" as="sourcePoint" />
            <mxPoint x="80" y="160" as="targetPoint" />
          </mxGeometry>
        </mxCell>
        <mxCell id="yqjopBWIbKLMoS0UAzcV-44" value="FName" style="ellipse;whiteSpace=wrap;html=1;" vertex="1" parent="WIyWlLk6GJQsqaUBKTNV-1">
          <mxGeometry x="-100" y="10" width="110" height="40" as="geometry" />
        </mxCell>
        <mxCell id="yqjopBWIbKLMoS0UAzcV-45" value="Minit" style="ellipse;whiteSpace=wrap;html=1;" vertex="1" parent="WIyWlLk6GJQsqaUBKTNV-1">
          <mxGeometry x="20" y="10" width="110" height="40" as="geometry" />
        </mxCell>
        <mxCell id="yqjopBWIbKLMoS0UAzcV-46" value="LName" style="ellipse;whiteSpace=wrap;html=1;" vertex="1" parent="WIyWlLk6GJQsqaUBKTNV-1">
          <mxGeometry x="140" y="10" width="110" height="40" as="geometry" />
        </mxCell>
        <mxCell id="yqjopBWIbKLMoS0UAzcV-47" value="" style="endArrow=none;html=1;rounded=0;entryX=0.5;entryY=1;entryDx=0;entryDy=0;exitX=0.5;exitY=0;exitDx=0;exitDy=0;" edge="1" parent="WIyWlLk6GJQsqaUBKTNV-1" source="yqjopBWIbKLMoS0UAzcV-42" target="yqjopBWIbKLMoS0UAzcV-45">
          <mxGeometry width="50" height="50" relative="1" as="geometry">
            <mxPoint x="30" y="100" as="sourcePoint" />
            <mxPoint x="80" y="50" as="targetPoint" />
          </mxGeometry>
        </mxCell>
        <mxCell id="yqjopBWIbKLMoS0UAzcV-48" value="" style="endArrow=none;html=1;rounded=0;entryX=0.5;entryY=1;entryDx=0;entryDy=0;exitX=0.279;exitY=0.055;exitDx=0;exitDy=0;exitPerimeter=0;" edge="1" parent="WIyWlLk6GJQsqaUBKTNV-1" source="yqjopBWIbKLMoS0UAzcV-42" target="yqjopBWIbKLMoS0UAzcV-44">
          <mxGeometry width="50" height="50" relative="1" as="geometry">
            <mxPoint x="40" y="125" as="sourcePoint" />
            <mxPoint x="40" y="55" as="targetPoint" />
          </mxGeometry>
        </mxCell>
        <mxCell id="yqjopBWIbKLMoS0UAzcV-49" value="" style="endArrow=none;html=1;rounded=0;entryX=0.291;entryY=1.019;entryDx=0;entryDy=0;exitX=0.682;exitY=0.033;exitDx=0;exitDy=0;entryPerimeter=0;exitPerimeter=0;" edge="1" parent="WIyWlLk6GJQsqaUBKTNV-1" source="yqjopBWIbKLMoS0UAzcV-42" target="yqjopBWIbKLMoS0UAzcV-46">
          <mxGeometry width="50" height="50" relative="1" as="geometry">
            <mxPoint x="160" y="110" as="sourcePoint" />
            <mxPoint x="160" y="40" as="targetPoint" />
          </mxGeometry>
        </mxCell>
        <mxCell id="yqjopBWIbKLMoS0UAzcV-50" value="SUPERVISION" style="rhombus;whiteSpace=wrap;html=1;fontSize=23;" vertex="1" parent="WIyWlLk6GJQsqaUBKTNV-1">
          <mxGeometry x="10" y="630" width="210" height="80" as="geometry" />
        </mxCell>
        <mxCell id="yqjopBWIbKLMoS0UAzcV-51" value="" style="endArrow=none;html=1;rounded=0;entryX=0;entryY=0.5;entryDx=0;entryDy=0;exitX=0.25;exitY=1;exitDx=0;exitDy=0;" edge="1" parent="WIyWlLk6GJQsqaUBKTNV-1" source="yqjopBWIbKLMoS0UAzcV-2" target="yqjopBWIbKLMoS0UAzcV-50">
          <mxGeometry width="50" height="50" relative="1" as="geometry">
            <mxPoint x="-50" y="490" as="sourcePoint" />
            <mxPoint y="440" as="targetPoint" />
          </mxGeometry>
        </mxCell>
        <mxCell id="yqjopBWIbKLMoS0UAzcV-52" value="" style="endArrow=none;html=1;rounded=0;exitX=0.75;exitY=1;exitDx=0;exitDy=0;entryX=1.004;entryY=0.501;entryDx=0;entryDy=0;entryPerimeter=0;" edge="1" parent="WIyWlLk6GJQsqaUBKTNV-1" source="yqjopBWIbKLMoS0UAzcV-2" target="yqjopBWIbKLMoS0UAzcV-50">
          <mxGeometry width="50" height="50" relative="1" as="geometry">
            <mxPoint x="106.5" y="340" as="sourcePoint" />
            <mxPoint x="220" y="540" as="targetPoint" />
          </mxGeometry>
        </mxCell>
        <mxCell id="yqjopBWIbKLMoS0UAzcV-53" value="Supervisor" style="text;html=1;align=center;verticalAlign=middle;resizable=0;points=[];autosize=1;strokeColor=none;fillColor=none;fontSize=23;" vertex="1" parent="WIyWlLk6GJQsqaUBKTNV-1">
          <mxGeometry x="-110" y="550" width="130" height="40" as="geometry" />
        </mxCell>
        <mxCell id="yqjopBWIbKLMoS0UAzcV-54" value="Supervisee" style="text;html=1;align=center;verticalAlign=middle;resizable=0;points=[];autosize=1;strokeColor=none;fillColor=none;fontSize=23;" vertex="1" parent="WIyWlLk6GJQsqaUBKTNV-1">
          <mxGeometry x="200" y="550" width="140" height="40" as="geometry" />
        </mxCell>
        <mxCell id="yqjopBWIbKLMoS0UAzcV-56" value="N" style="text;html=1;align=center;verticalAlign=middle;resizable=0;points=[];autosize=1;strokeColor=none;fillColor=none;fontSize=23;" vertex="1" parent="WIyWlLk6GJQsqaUBKTNV-1">
          <mxGeometry x="230" y="670" width="40" height="40" as="geometry" />
        </mxCell>
        <mxCell id="yqjopBWIbKLMoS0UAzcV-57" value="1" style="text;html=1;align=center;verticalAlign=middle;resizable=0;points=[];autosize=1;strokeColor=none;fillColor=none;fontSize=23;" vertex="1" parent="WIyWlLk6GJQsqaUBKTNV-1">
          <mxGeometry x="-40" y="670" width="40" height="40" as="geometry" />
        </mxCell>
        <mxCell id="yqjopBWIbKLMoS0UAzcV-58" value="&lt;u&gt;Name&lt;/u&gt;" style="ellipse;whiteSpace=wrap;html=1;" vertex="1" parent="WIyWlLk6GJQsqaUBKTNV-1">
          <mxGeometry x="640" y="160" width="110" height="40" as="geometry" />
        </mxCell>
        <mxCell id="yqjopBWIbKLMoS0UAzcV-59" value="&lt;u&gt;Number&lt;/u&gt;" style="ellipse;whiteSpace=wrap;html=1;" vertex="1" parent="WIyWlLk6GJQsqaUBKTNV-1">
          <mxGeometry x="790" y="160" width="110" height="40" as="geometry" />
        </mxCell>
        <mxCell id="yqjopBWIbKLMoS0UAzcV-60" value="" style="endArrow=none;html=1;rounded=0;exitX=0.5;exitY=1;exitDx=0;exitDy=0;entryX=0.361;entryY=0.006;entryDx=0;entryDy=0;entryPerimeter=0;" edge="1" parent="WIyWlLk6GJQsqaUBKTNV-1" source="yqjopBWIbKLMoS0UAzcV-58" target="yqjopBWIbKLMoS0UAzcV-3">
          <mxGeometry width="50" height="50" relative="1" as="geometry">
            <mxPoint x="720" y="190" as="sourcePoint" />
            <mxPoint x="770" y="140" as="targetPoint" />
          </mxGeometry>
        </mxCell>
        <mxCell id="yqjopBWIbKLMoS0UAzcV-61" value="" style="endArrow=none;html=1;rounded=0;exitX=0.5;exitY=1;exitDx=0;exitDy=0;" edge="1" parent="WIyWlLk6GJQsqaUBKTNV-1" source="yqjopBWIbKLMoS0UAzcV-59">
          <mxGeometry width="50" height="50" relative="1" as="geometry">
            <mxPoint x="890" y="210" as="sourcePoint" />
            <mxPoint x="790" y="280" as="targetPoint" />
          </mxGeometry>
        </mxCell>
        <mxCell id="yqjopBWIbKLMoS0UAzcV-62" value="Locations" style="ellipse;shape=doubleEllipse;margin=3;whiteSpace=wrap;html=1;align=center;" vertex="1" parent="WIyWlLk6GJQsqaUBKTNV-1">
          <mxGeometry x="727" y="80" width="100" height="40" as="geometry" />
        </mxCell>
        <mxCell id="yqjopBWIbKLMoS0UAzcV-63" value="" style="endArrow=none;html=1;rounded=0;entryX=0.5;entryY=1;entryDx=0;entryDy=0;exitX=0.5;exitY=0;exitDx=0;exitDy=0;" edge="1" parent="WIyWlLk6GJQsqaUBKTNV-1" source="yqjopBWIbKLMoS0UAzcV-3" target="yqjopBWIbKLMoS0UAzcV-62">
          <mxGeometry width="50" height="50" relative="1" as="geometry">
            <mxPoint x="740" y="180" as="sourcePoint" />
            <mxPoint x="790" y="130" as="targetPoint" />
          </mxGeometry>
        </mxCell>
        <mxCell id="yqjopBWIbKLMoS0UAzcV-64" value="CONTROLS" style="rhombus;whiteSpace=wrap;html=1;fontSize=23;" vertex="1" parent="WIyWlLk6GJQsqaUBKTNV-1">
          <mxGeometry x="660" y="368" width="210" height="80" as="geometry" />
        </mxCell>
        <mxCell id="yqjopBWIbKLMoS0UAzcV-65" value="" style="endArrow=none;html=1;rounded=0;entryX=0.5;entryY=1;entryDx=0;entryDy=0;exitX=0.5;exitY=0;exitDx=0;exitDy=0;" edge="1" parent="WIyWlLk6GJQsqaUBKTNV-1" source="yqjopBWIbKLMoS0UAzcV-64" target="yqjopBWIbKLMoS0UAzcV-3">
          <mxGeometry width="50" height="50" relative="1" as="geometry">
            <mxPoint x="650" y="410" as="sourcePoint" />
            <mxPoint x="700" y="360" as="targetPoint" />
          </mxGeometry>
        </mxCell>
        <mxCell id="yqjopBWIbKLMoS0UAzcV-68" value="1" style="text;html=1;align=center;verticalAlign=middle;resizable=0;points=[];autosize=1;strokeColor=none;fillColor=none;fontSize=23;" vertex="1" parent="WIyWlLk6GJQsqaUBKTNV-1">
          <mxGeometry x="780" y="345" width="40" height="40" as="geometry" />
        </mxCell>
        <mxCell id="yqjopBWIbKLMoS0UAzcV-69" value="PROJECT" style="rounded=0;whiteSpace=wrap;html=1;fontSize=23;" vertex="1" parent="WIyWlLk6GJQsqaUBKTNV-1">
          <mxGeometry x="680" y="590" width="170" height="40" as="geometry" />
        </mxCell>
        <mxCell id="yqjopBWIbKLMoS0UAzcV-70" value="" style="endArrow=none;html=1;rounded=0;entryX=0.449;entryY=0.952;entryDx=0;entryDy=0;entryPerimeter=0;exitX=0.431;exitY=-0.001;exitDx=0;exitDy=0;exitPerimeter=0;" edge="1" parent="WIyWlLk6GJQsqaUBKTNV-1" source="yqjopBWIbKLMoS0UAzcV-69" target="yqjopBWIbKLMoS0UAzcV-64">
          <mxGeometry width="50" height="50" relative="1" as="geometry">
            <mxPoint x="660" y="510" as="sourcePoint" />
            <mxPoint x="710" y="460" as="targetPoint" />
          </mxGeometry>
        </mxCell>
        <mxCell id="yqjopBWIbKLMoS0UAzcV-72" value="" style="endArrow=none;html=1;rounded=0;entryX=0.551;entryY=0.949;entryDx=0;entryDy=0;entryPerimeter=0;exitX=0.562;exitY=-0.012;exitDx=0;exitDy=0;exitPerimeter=0;" edge="1" parent="WIyWlLk6GJQsqaUBKTNV-1" source="yqjopBWIbKLMoS0UAzcV-69" target="yqjopBWIbKLMoS0UAzcV-64">
          <mxGeometry width="50" height="50" relative="1" as="geometry">
            <mxPoint x="777" y="580" as="sourcePoint" />
            <mxPoint x="777.5" y="447" as="targetPoint" />
          </mxGeometry>
        </mxCell>
        <mxCell id="yqjopBWIbKLMoS0UAzcV-73" value="Location" style="ellipse;whiteSpace=wrap;html=1;" vertex="1" parent="WIyWlLk6GJQsqaUBKTNV-1">
          <mxGeometry x="710" y="740" width="110" height="40" as="geometry" />
        </mxCell>
        <mxCell id="yqjopBWIbKLMoS0UAzcV-74" value="" style="endArrow=none;html=1;rounded=0;entryX=0.5;entryY=1;entryDx=0;entryDy=0;exitX=0.5;exitY=0;exitDx=0;exitDy=0;" edge="1" parent="WIyWlLk6GJQsqaUBKTNV-1" source="yqjopBWIbKLMoS0UAzcV-73" target="yqjopBWIbKLMoS0UAzcV-69">
          <mxGeometry width="50" height="50" relative="1" as="geometry">
            <mxPoint x="727" y="620" as="sourcePoint" />
            <mxPoint x="777" y="570" as="targetPoint" />
          </mxGeometry>
        </mxCell>
        <mxCell id="yqjopBWIbKLMoS0UAzcV-76" value="N" style="text;html=1;align=center;verticalAlign=middle;resizable=0;points=[];autosize=1;strokeColor=none;fillColor=none;fontSize=23;" vertex="1" parent="WIyWlLk6GJQsqaUBKTNV-1">
          <mxGeometry x="780" y="440" width="40" height="40" as="geometry" />
        </mxCell>
        <mxCell id="yqjopBWIbKLMoS0UAzcV-78" value="WORK_ON" style="rhombus;whiteSpace=wrap;html=1;fontSize=23;" vertex="1" parent="WIyWlLk6GJQsqaUBKTNV-1">
          <mxGeometry x="340" y="570" width="210" height="80" as="geometry" />
        </mxCell>
        <mxCell id="yqjopBWIbKLMoS0UAzcV-79" value="" style="endArrow=none;html=1;rounded=0;entryX=0.001;entryY=0.415;entryDx=0;entryDy=0;exitX=0.959;exitY=0.457;exitDx=0;exitDy=0;exitPerimeter=0;entryPerimeter=0;" edge="1" parent="WIyWlLk6GJQsqaUBKTNV-1" source="yqjopBWIbKLMoS0UAzcV-78" target="yqjopBWIbKLMoS0UAzcV-69">
          <mxGeometry width="50" height="50" relative="1" as="geometry">
            <mxPoint x="570" y="700" as="sourcePoint" />
            <mxPoint x="620" y="650" as="targetPoint" />
          </mxGeometry>
        </mxCell>
        <mxCell id="yqjopBWIbKLMoS0UAzcV-80" value="" style="endArrow=none;html=1;rounded=0;entryX=-0.007;entryY=0.649;entryDx=0;entryDy=0;exitX=0.905;exitY=0.592;exitDx=0;exitDy=0;exitPerimeter=0;entryPerimeter=0;" edge="1" parent="WIyWlLk6GJQsqaUBKTNV-1" source="yqjopBWIbKLMoS0UAzcV-78" target="yqjopBWIbKLMoS0UAzcV-69">
          <mxGeometry width="50" height="50" relative="1" as="geometry">
            <mxPoint x="540" y="617" as="sourcePoint" />
            <mxPoint x="679" y="617" as="targetPoint" />
          </mxGeometry>
        </mxCell>
        <mxCell id="yqjopBWIbKLMoS0UAzcV-81" value="" style="endArrow=none;html=1;rounded=0;exitX=0.938;exitY=1.003;exitDx=0;exitDy=0;entryX=0.033;entryY=0.464;entryDx=0;entryDy=0;entryPerimeter=0;exitPerimeter=0;" edge="1" parent="WIyWlLk6GJQsqaUBKTNV-1" source="yqjopBWIbKLMoS0UAzcV-2" target="yqjopBWIbKLMoS0UAzcV-78">
          <mxGeometry width="50" height="50" relative="1" as="geometry">
            <mxPoint x="260" y="600" as="sourcePoint" />
            <mxPoint x="310" y="550" as="targetPoint" />
          </mxGeometry>
        </mxCell>
        <mxCell id="yqjopBWIbKLMoS0UAzcV-82" value="" style="endArrow=none;html=1;rounded=0;entryX=0;entryY=0.5;entryDx=0;entryDy=0;exitX=0.884;exitY=0.994;exitDx=0;exitDy=0;exitPerimeter=0;" edge="1" parent="WIyWlLk6GJQsqaUBKTNV-1" source="yqjopBWIbKLMoS0UAzcV-2" target="yqjopBWIbKLMoS0UAzcV-78">
          <mxGeometry width="50" height="50" relative="1" as="geometry">
            <mxPoint x="210" y="330" as="sourcePoint" />
            <mxPoint x="350" y="620" as="targetPoint" />
          </mxGeometry>
        </mxCell>
        <mxCell id="yqjopBWIbKLMoS0UAzcV-83" value="&lt;u&gt;Number&lt;/u&gt;" style="ellipse;whiteSpace=wrap;html=1;" vertex="1" parent="WIyWlLk6GJQsqaUBKTNV-1">
          <mxGeometry x="600" y="760" width="110" height="40" as="geometry" />
        </mxCell>
        <mxCell id="yqjopBWIbKLMoS0UAzcV-84" value="&lt;u&gt;Name&lt;/u&gt;" style="ellipse;whiteSpace=wrap;html=1;" vertex="1" parent="WIyWlLk6GJQsqaUBKTNV-1">
          <mxGeometry x="550" y="700" width="110" height="40" as="geometry" />
        </mxCell>
      </root>
    </mxGraphModel>
  </diagram>
</mxfile>
